<svg width="2000" height="2000" viewBox="0 0 2000 2000" fill="none" xmlns="http://www.w3.org/2000/svg">
<g clip-path="url(#clip0_201_40)">
<rect x="1" width="2000" height="2000" rx="1000" fill="black"/>
<path d="M765 1334L561.5 759.5C563.167 772.167 565.167 788.5 567.5 808.5C569.833 828.5 572 851.167 574 876.5C576.333 901.833 578.167 928.667 579.5 957C581.167 985.333 582 1014 582 1043V1334H463V642.5H637L838.5 1216C835.833 1199 832.833 1176.5 829.5 1148.5C826.5 1120.5 823.833 1088.33 821.5 1052C819.167 1015.67 818 977 818 936V642.5H937V1334H765ZM1502.61 1194.5C1502.61 1214.83 1505.61 1229.67 1511.61 1239C1517.61 1248 1527.28 1254.83 1540.61 1259.5L1512.11 1348C1483.78 1345 1459.61 1338 1439.61 1327C1419.94 1315.67 1404.78 1298.83 1394.11 1276.5C1374.11 1300.83 1348.78 1319 1318.11 1331C1287.78 1343 1255.94 1349 1222.61 1349C1168.61 1349 1125.78 1333.67 1094.11 1303C1062.44 1272.33 1046.61 1232.5 1046.61 1183.5C1046.61 1127.17 1068.61 1083.83 1112.61 1053.5C1156.94 1022.83 1219.61 1007.5 1300.61 1007.5H1374.61V979C1374.61 947.667 1364.94 925 1345.61 911C1326.28 896.667 1298.44 889.5 1262.11 889.5C1245.11 889.5 1223.78 891.833 1198.11 896.5C1172.78 900.833 1146.61 907.667 1119.61 917L1088.11 826.5C1121.78 813.833 1155.61 804.5 1189.61 798.5C1223.94 792.5 1255.11 789.5 1283.11 789.5C1357.44 789.5 1412.61 805.333 1448.61 837C1484.61 868.333 1502.61 912.833 1502.61 970.5V1194.5ZM1265.61 1253.5C1285.61 1253.5 1305.78 1247.83 1326.11 1236.5C1346.78 1225.17 1362.94 1209.33 1374.61 1189V1086H1322.61C1273.61 1086 1238.11 1093.83 1216.11 1109.5C1194.44 1125.17 1183.61 1147.33 1183.61 1176C1183.61 1200.67 1190.61 1219.83 1204.61 1233.5C1218.61 1246.83 1238.94 1253.5 1265.61 1253.5Z" fill="white"/>
</g>
<defs>
<clipPath id="clip0_201_40">
<rect width="2000" height="2000" fill="white"/>
</clipPath>
</defs>
</svg>
