<svg width="333" height="107" viewBox="0 0 333 107" fill="none" xmlns="http://www.w3.org/2000/svg">
<path d="M104 53.3298C104 81.1261 81.4366 103.66 53.603 103.66C25.7695 103.66 3.20599 81.1261 3.20599 53.3298C3.20599 25.5334 25.7695 3 53.603 3C81.4366 3 104 25.5334 104 53.3298Z" fill="#50D5FD"/>
<path d="M51.283 43.1608L49.8007 49.2107L79.446 92.3965L73.9681 45.7353L71.9058 43.1608L63.5922 38.012L57.0187 39.2992L51.283 43.1608Z" fill="#F5E548"/>
<path d="M79.446 95.6145L70.6813 9.11423L97.3621 79.7175L85.8907 93.0401L79.446 95.6145Z" fill="#BD6A6A"/>
<path d="M46.2113 44.526L25.7622 44.7698L60.7566 102.244H64.4945L78.7371 97.674V93.2975L46.2113 44.526Z" fill="#BD6A6A"/>
<path d="M17.9642 88.9156L23.9577 44.7698L60.7566 103.853H46.0628L25.3111 95.3571L17.9642 88.9156Z" fill="#844F4F"/>
<path d="M17.9642 88.2131L25.3111 13.0402C21.3369 15.4859 12.4605 22.0893 8.74837 28.9372C4.10823 37.4971 1.85261 49.5969 3.91489 62.4689C5.56472 72.7666 13.9685 83.9224 17.9642 88.2131Z" fill="#08687E"/>
<path d="M44.8383 43.7401H23.9577L26.8983 15.4805L44.8383 43.7401Z" fill="#D77C7C"/>
<path d="M95.9443 79.9749L71.9058 7.89138L82.0883 11.5599L95.9443 26.6846L103.613 46.2501L101.487 68.0683L95.9443 79.9749Z" fill="#007E9C"/>
<path d="M15.8388 88.7199C15.6969 90.0933 16.6952 91.3217 18.0686 91.4636C19.442 91.6055 20.6704 90.6071 20.8123 89.2337L15.8388 88.7199ZM26.192 12.8331L28.2827 11.4622C27.7026 10.5776 26.6287 10.1539 25.6009 10.404C24.5731 10.6541 23.814 11.524 23.7053 12.5762L26.192 12.8331ZM80.1233 95.0784L78.0326 96.4493C78.6634 97.4112 79.8691 97.8186 80.954 97.4364C82.0389 97.0542 82.723 95.981 82.6115 94.8361L80.1233 95.0784ZM74.0465 6.8768C73.9127 5.50259 72.6902 4.49704 71.316 4.63086C69.9418 4.76467 68.9362 5.98717 69.07 7.36138L74.0465 6.8768ZM24.7047 43.8045V41.3045H20.2299L22.5758 45.1151L24.7047 43.8045ZM46.1611 46.3045C47.5418 46.3045 48.6611 45.1852 48.6611 43.8045C48.6611 42.4238 47.5418 41.3045 46.1611 41.3045V46.3045ZM74.3114 6.31283C73.8661 5.00589 72.4456 4.30738 71.1387 4.75267C69.8317 5.19795 69.1332 6.61841 69.5785 7.92535L74.3114 6.31283ZM94.221 80.2525C94.6663 81.5595 96.0868 82.258 97.3937 81.8127C98.7006 81.3674 99.3991 79.947 98.9539 78.64L94.221 80.2525ZM58.4735 103.426C59.1973 104.601 60.7372 104.968 61.913 104.244C63.0888 103.52 63.4551 101.98 62.7313 100.804L58.4735 103.426ZM47.4949 49.4426C47.694 50.8088 48.963 51.755 50.3293 51.5558C51.6956 51.3567 52.6417 50.0877 52.4426 48.7214L47.4949 49.4426ZM73.3122 50.8649C73.5407 52.2266 74.8298 53.1452 76.1915 52.9166C77.5531 52.6881 78.4717 51.399 78.2432 50.0374L73.3122 50.8649ZM20.8123 89.2337L28.6788 13.09L23.7053 12.5762L15.8388 88.7199L20.8123 89.2337ZM24.1014 14.204L78.0326 96.4493L82.2139 93.7075L28.2827 11.4622L24.1014 14.204ZM82.6115 94.8361L74.0465 6.8768L69.07 7.36138L77.635 95.3207L82.6115 94.8361ZM24.7047 46.3045H46.1611V41.3045H24.7047V46.3045ZM69.5785 7.92535L94.221 80.2525L98.9539 78.64L74.3114 6.31283L69.5785 7.92535ZM22.5758 45.1151L58.4735 103.426L62.7313 100.804L26.8336 42.4939L22.5758 45.1151ZM52.4426 48.7214C52.2359 47.3034 52.8696 45.7753 54.5522 44.3662C56.2381 42.9543 58.7402 41.9063 61.4352 41.6225C64.118 41.3399 66.7749 41.8346 68.8685 43.222C70.9054 44.5718 72.6506 46.9231 73.3122 50.8649L78.2432 50.0374C77.3793 44.8898 74.9505 41.2542 71.6305 39.0541C68.3674 36.8917 64.4848 36.2736 60.9114 36.65C57.3502 37.0251 53.8795 38.4077 51.3419 40.5329C48.801 42.6608 46.9604 45.7761 47.4949 49.4426L52.4426 48.7214ZM101.294 53.5062C101.294 79.9187 79.853 101.336 53.397 101.336V106.336C82.6081 106.336 106.294 82.6865 106.294 53.5062H101.294ZM53.397 101.336C26.9411 101.336 5.5 79.9187 5.5 53.5062H0.5C0.5 82.6865 24.186 106.336 53.397 106.336V101.336ZM5.5 53.5062C5.5 27.0937 26.9411 5.67645 53.397 5.67645V0.676455C24.186 0.676455 0.5 24.326 0.5 53.5062H5.5ZM53.397 5.67645C79.853 5.67645 101.294 27.0937 101.294 53.5062H106.294C106.294 24.326 82.6081 0.676455 53.397 0.676455V5.67645Z" fill="black"/>
<path d="M141.95 64L129.825 33.725C129.842 34.1083 129.875 34.75 129.925 35.65C129.992 36.5333 130.059 37.5917 130.125 38.825C130.209 40.0417 130.275 41.3333 130.325 42.7C130.375 44.0667 130.4 45.4167 130.4 46.75V64H126.375V29.575H132.25L144.575 59.975C144.559 59.4917 144.5 58.6083 144.4 57.325C144.3 56.025 144.209 54.4583 144.125 52.625C144.042 50.7917 144 48.85 144 46.8V29.575H148.025V64H141.95ZM176.056 58.25C176.056 59.3 176.231 60.0667 176.581 60.55C176.931 61.0333 177.472 61.3917 178.206 61.625L177.181 64.575C176.047 64.425 175.056 64.0667 174.206 63.5C173.356 62.9167 172.739 62.0417 172.356 60.875C171.406 62.0917 170.222 63.0167 168.806 63.65C167.389 64.2667 165.822 64.575 164.106 64.575C161.472 64.575 159.397 63.8333 157.881 62.35C156.364 60.8667 155.606 58.9 155.606 56.45C155.606 53.7333 156.664 51.65 158.781 50.2C160.897 48.75 163.956 48.025 167.956 48.025H171.831V45.825C171.831 43.925 171.272 42.5833 170.156 41.8C169.056 41 167.522 40.6 165.556 40.6C164.689 40.6 163.672 40.7083 162.506 40.925C161.339 41.125 160.072 41.4667 158.706 41.95L157.606 38.775C159.222 38.175 160.739 37.75 162.156 37.5C163.572 37.25 164.922 37.125 166.206 37.125C169.489 37.125 171.947 37.8917 173.581 39.425C175.231 40.9417 176.056 43.0083 176.056 45.625V58.25ZM165.181 61.375C166.481 61.375 167.722 61.05 168.906 60.4C170.089 59.7333 171.064 58.8167 171.831 57.65V50.875H168.031C165.131 50.875 163.081 51.375 161.881 52.375C160.697 53.375 160.106 54.7167 160.106 56.4C160.106 58.0333 160.522 59.275 161.356 60.125C162.206 60.9583 163.481 61.375 165.181 61.375ZM208.086 62.675C207.186 63.275 206.094 63.7417 204.811 64.075C203.528 64.4083 202.269 64.575 201.036 64.575C198.203 64.575 196.019 63.8333 194.486 62.35C192.953 60.8667 192.186 58.9583 192.186 56.625V40.925H186.136V37.675H192.186V31.7L196.386 31.2V37.675H205.486L204.986 40.925H196.386V56.575C196.386 58.0417 196.769 59.1583 197.536 59.925C198.319 60.6917 199.611 61.075 201.411 61.075C202.394 61.075 203.303 60.9583 204.136 60.725C204.969 60.4917 205.744 60.1917 206.461 59.825L208.086 62.675ZM217.417 64V60.775H221.517V40.9H217.417V37.675H224.717L225.492 43.9C226.508 41.7333 227.742 40.0583 229.192 38.875C230.642 37.6917 232.558 37.1 234.942 37.1C235.675 37.1 236.325 37.1583 236.892 37.275C237.475 37.375 238.067 37.5083 238.667 37.675L237.442 41.425C236.892 41.275 236.392 41.1667 235.942 41.1C235.492 41.0167 234.975 40.975 234.392 40.975C232.375 40.975 230.642 41.6917 229.192 43.125C227.742 44.5583 226.583 46.725 225.717 49.625V60.775H231.067V64H217.417ZM234.617 46.575V40.85L235.042 37.675H238.667L238.067 46.575H234.617ZM260.472 37.675V60.675H267.897V64H248.147V60.675H256.272V41H248.397V37.675H260.472ZM257.122 25.35C258.055 25.35 258.797 25.6333 259.347 26.2C259.914 26.7667 260.197 27.4583 260.197 28.275C260.197 29.125 259.914 29.8417 259.347 30.425C258.797 30.9917 258.055 31.275 257.122 31.275C256.239 31.275 255.514 30.9917 254.947 30.425C254.38 29.8417 254.097 29.125 254.097 28.275C254.097 27.4583 254.38 26.7667 254.947 26.2C255.514 25.6333 256.239 25.35 257.122 25.35ZM281.328 37.675V56.325C281.328 58.0583 281.686 59.3083 282.403 60.075C283.119 60.8417 284.236 61.225 285.753 61.225C287.203 61.225 288.569 60.8167 289.853 60C291.153 59.1667 292.161 58.1833 292.878 57.05V37.675H297.078V64H293.503L293.153 60.45C292.119 61.7833 290.844 62.8083 289.328 63.525C287.811 64.225 286.278 64.575 284.728 64.575C282.178 64.575 280.269 63.9 279.003 62.55C277.753 61.1833 277.128 59.275 277.128 56.825V37.675H281.328ZM324.458 37.125C325.308 37.125 326.116 37.3083 326.883 37.675C327.666 38.0417 328.308 38.75 328.808 39.8C329.308 40.85 329.558 42.3833 329.558 44.4V64H325.658V45.075C325.658 43.425 325.558 42.2333 325.358 41.5C325.158 40.7667 324.583 40.4 323.633 40.4C322.85 40.4 322.066 40.65 321.283 41.15C320.516 41.6333 319.766 42.4333 319.033 43.55V64H315.108V45.075C315.108 43.425 315.008 42.2333 314.808 41.5C314.608 40.7667 314.033 40.4 313.083 40.4C312.266 40.4 311.475 40.65 310.708 41.15C309.958 41.6333 309.216 42.4333 308.483 43.55V64H304.608V37.675H307.908L308.158 40.725C308.875 39.7083 309.675 38.8583 310.558 38.175C311.458 37.475 312.566 37.125 313.883 37.125C314.883 37.125 315.825 37.3667 316.708 37.85C317.591 38.3167 318.241 39.2333 318.658 40.6C319.375 39.5667 320.183 38.7333 321.083 38.1C321.983 37.45 323.108 37.125 324.458 37.125Z" fill="black"/>
<path d="M228.932 79.3795L224.342 92H222.005L217.45 79.3795H219.584L223.239 90.1662L226.847 79.3795H228.932ZM237.564 75.2326C239.346 75.2326 240.692 75.9677 241.603 77.4379C242.514 78.9081 242.97 81.0095 242.97 83.7421C242.97 86.4828 242.514 88.5922 241.603 90.0704C240.692 91.5406 239.346 92.2757 237.564 92.2757C235.79 92.2757 234.444 91.5406 233.525 90.0704C232.614 88.5922 232.159 86.4828 232.159 83.7421C232.159 81.0095 232.614 78.9081 233.525 77.4379C234.444 75.9677 235.79 75.2326 237.564 75.2326ZM237.564 76.8506C236.549 76.8506 235.75 77.3899 235.167 78.4686C234.584 79.5393 234.292 81.2971 234.292 83.7421C234.292 84.9806 234.356 86.0393 234.484 86.9182C234.612 87.7972 234.808 88.5123 235.071 89.0636C235.343 89.6069 235.682 90.0064 236.09 90.2621C236.505 90.5178 236.997 90.6457 237.564 90.6457C238.251 90.6457 238.839 90.41 239.326 89.9385C239.821 89.4671 240.197 88.724 240.453 87.7093C240.716 86.6865 240.848 85.3641 240.848 83.7421C240.848 82.0961 240.732 80.7658 240.501 79.751C240.277 78.7363 239.921 78.0012 239.434 77.5457C238.954 77.0823 238.331 76.8506 237.564 76.8506ZM239.997 77.4379L240.525 79.1997L235.275 89.8307L234.532 88.4284L239.997 77.4379ZM249.816 90.1543C249.816 89.7627 249.908 89.4112 250.091 89.0996C250.275 88.7799 250.523 88.5283 250.835 88.3445C251.154 88.1527 251.514 88.0568 251.913 88.0568C252.321 88.0568 252.684 88.1527 253.004 88.3445C253.323 88.5283 253.575 88.7799 253.759 89.0996C253.943 89.4112 254.035 89.7627 254.035 90.1543C254.035 90.5458 253.943 90.9053 253.759 91.2329C253.575 91.5525 253.323 91.8082 253.004 92C252.684 92.1838 252.321 92.2757 251.913 92.2757C251.514 92.2757 251.154 92.1838 250.835 92C250.523 91.8082 250.275 91.5525 250.091 91.2329C249.908 90.9053 249.816 90.5458 249.816 90.1543ZM268.072 75.4962V91.5206H266.058V77.6776L262.271 79.9787L261.396 78.5405L266.31 75.4962H268.072ZM271.524 90.358V92H261.995V90.358H271.524ZM278.562 90.1543C278.562 89.7627 278.654 89.4112 278.837 89.0996C279.021 88.7799 279.269 88.5283 279.581 88.3445C279.9 88.1527 280.26 88.0568 280.659 88.0568C281.067 88.0568 281.43 88.1527 281.75 88.3445C282.069 88.5283 282.321 88.7799 282.505 89.0996C282.689 89.4112 282.781 89.7627 282.781 90.1543C282.781 90.5458 282.689 90.9053 282.505 91.2329C282.321 91.5525 282.069 91.8082 281.75 92C281.43 92.1838 281.067 92.2757 280.659 92.2757C280.26 92.2757 279.9 92.1838 279.581 92C279.269 91.8082 279.021 91.5525 278.837 91.2329C278.654 90.9053 278.562 90.5458 278.562 90.1543ZM295.056 75.2326C296.838 75.2326 298.184 75.9677 299.095 77.4379C300.006 78.9081 300.462 81.0095 300.462 83.7421C300.462 86.4828 300.006 88.5922 299.095 90.0704C298.184 91.5406 296.838 92.2757 295.056 92.2757C293.282 92.2757 291.936 91.5406 291.017 90.0704C290.106 88.5922 289.651 86.4828 289.651 83.7421C289.651 81.0095 290.106 78.9081 291.017 77.4379C291.936 75.9677 293.282 75.2326 295.056 75.2326ZM295.056 76.8506C294.041 76.8506 293.242 77.3899 292.659 78.4686C292.076 79.5393 291.784 81.2971 291.784 83.7421C291.784 84.9806 291.848 86.0393 291.976 86.9182C292.104 87.7972 292.3 88.5123 292.563 89.0636C292.835 89.6069 293.174 90.0064 293.582 90.2621C293.997 90.5178 294.489 90.6457 295.056 90.6457C295.743 90.6457 296.331 90.41 296.818 89.9385C297.313 89.4671 297.689 88.724 297.945 87.7093C298.208 86.6865 298.34 85.3641 298.34 83.7421C298.34 82.0961 298.224 80.7658 297.993 79.751C297.769 78.7363 297.413 78.0012 296.926 77.5457C296.446 77.0823 295.823 76.8506 295.056 76.8506ZM297.489 77.4379L298.017 79.1997L292.767 89.8307L292.024 88.4284L297.489 77.4379Z" fill="#383838"/>
<path d="M134.459 88.7932H127.927L126.608 93H124.559L129.928 76.4962H132.589L137.958 93H135.777L134.459 88.7932ZM128.466 87.0673H133.919L131.211 78.2461L128.466 87.0673ZM145.764 75.2977V89.8838C145.764 90.5071 145.955 90.9505 146.339 91.2142C146.73 91.4699 147.234 91.5977 147.849 91.5977C148.232 91.5977 148.596 91.5578 148.94 91.4779C149.283 91.398 149.627 91.2901 149.97 91.1543L150.51 92.6285C150.166 92.7962 149.739 92.9441 149.227 93.0719C148.724 93.2077 148.153 93.2757 147.513 93.2757C146.395 93.2757 145.488 92.968 144.793 92.3528C144.098 91.7296 143.75 90.8706 143.75 89.776V76.8918H139.879V75.2977H145.764ZM160.868 80.1158C161.986 80.1158 162.877 80.3875 163.54 80.9308C164.212 81.4741 164.695 82.2412 164.991 83.232C165.286 84.2148 165.434 85.3654 165.434 86.6837C165.434 87.9542 165.254 89.0888 164.895 90.0876C164.543 91.0784 164.008 91.8574 163.289 92.4247C162.57 92.992 161.663 93.2757 160.568 93.2757C159.186 93.2757 158.075 92.7883 157.236 91.8135V97.8301L155.223 98.0818V80.3795H156.936L157.104 82.1413C157.568 81.4941 158.119 80.9947 158.758 80.6432C159.405 80.2916 160.109 80.1158 160.868 80.1158ZM160.388 81.7338C159.693 81.7338 159.078 81.9456 158.542 82.369C158.015 82.7845 157.58 83.248 157.236 83.7593V90.0157C157.564 90.5031 157.975 90.8906 158.471 91.1782C158.974 91.4579 159.525 91.5977 160.125 91.5977C161.171 91.5977 161.958 91.1982 162.486 90.3992C163.013 89.6002 163.277 88.3577 163.277 86.6718C163.277 85.5691 163.173 84.6542 162.965 83.9271C162.757 83.192 162.442 82.6447 162.018 82.2851C161.595 81.9176 161.051 81.7338 160.388 81.7338ZM171.609 75.1059V82.1054C172.104 81.4422 172.712 80.9468 173.431 80.6192C174.158 80.2836 174.893 80.1158 175.636 80.1158C176.867 80.1158 177.766 80.4434 178.333 81.0986C178.9 81.7538 179.184 82.6647 179.184 83.8312V93H177.17V83.8792C177.17 83.1201 176.994 82.5688 176.643 82.2252C176.291 81.8736 175.74 81.6979 174.989 81.6979C174.51 81.6979 174.054 81.8057 173.623 82.0215C173.191 82.2372 172.804 82.5049 172.46 82.8245C172.116 83.1441 171.833 83.4717 171.609 83.8073V93H169.596V75.3217L171.609 75.1059ZM193.005 90.2434C193.005 90.7468 193.089 91.1143 193.257 91.346C193.425 91.5777 193.685 91.7495 194.036 91.8614L193.545 93.2757C193.001 93.2038 192.526 93.032 192.119 92.7603C191.711 92.4806 191.415 92.0612 191.232 91.5018C190.776 92.0851 190.209 92.5286 189.53 92.8322C188.851 93.1278 188.099 93.2757 187.276 93.2757C186.014 93.2757 185.019 92.9201 184.292 92.209C183.565 91.4978 183.201 90.555 183.201 89.3804C183.201 88.078 183.709 87.0793 184.724 86.3841C185.738 85.689 187.205 85.3414 189.122 85.3414H190.98V84.2867C190.98 83.3758 190.712 82.7326 190.177 82.3571C189.65 81.9735 188.914 81.7818 187.972 81.7818C187.556 81.7818 187.069 81.8337 186.509 81.9376C185.95 82.0335 185.343 82.1972 184.688 82.429L184.16 80.9068C184.935 80.6192 185.662 80.4154 186.342 80.2956C187.021 80.1757 187.668 80.1158 188.283 80.1158C189.857 80.1158 191.036 80.4834 191.819 81.2185C192.61 81.9456 193.005 82.9363 193.005 84.1908V90.2434ZM187.792 91.7415C188.415 91.7415 189.01 91.5857 189.578 91.2741C190.145 90.9545 190.612 90.515 190.98 89.9557V86.7077H189.158C187.768 86.7077 186.785 86.9474 186.21 87.4268C185.642 87.9062 185.359 88.5495 185.359 89.3565C185.359 90.1395 185.559 90.7348 185.958 91.1423C186.366 91.5418 186.977 91.7415 187.792 91.7415Z" fill="#383838"/>
<path d="M206 78.397L206 92.7794" stroke="#2F2F2F" stroke-width="2.39706" stroke-linecap="round"/>
</svg>
