<svg width="1913" height="1911" viewBox="0 0 1913 1911" fill="none" xmlns="http://www.w3.org/2000/svg">
<path d="M1888.82 952.221C1888.82 1464.31 1473.14 1879.44 960.36 1879.44C447.586 1879.44 31.8996 1464.31 31.8996 952.221C31.8996 440.131 447.586 25 960.36 25C1473.14 25 1888.82 440.131 1888.82 952.221Z" fill="#50D5FD"/>
<path d="M917.618 764.88L890.31 876.336L1436.46 1671.94L1335.54 812.308L1297.55 764.88L1144.39 670.024L1023.29 693.738L917.618 764.88Z" fill="#F5E548"/>
<path d="M1436.46 1731.23L1274.99 137.642L1766.53 1438.36L1555.19 1683.8L1436.46 1731.23Z" fill="#BD6A6A"/>
<path d="M824.182 790.03L447.451 794.523L1092.15 1853.36H1161.01L1423.4 1769.17V1688.54L824.182 790.03Z" fill="#BD6A6A"/>
<path d="M303.789 1607.82L414.207 794.523L1092.15 1883H821.448L439.14 1726.49L303.789 1607.82Z" fill="#844F4F"/>
<path d="M303.789 1594.87L439.14 209.97C365.924 255.027 202.394 376.68 134.006 502.839C48.5214 660.538 6.96628 883.451 44.9596 1120.59C75.3542 1310.3 230.177 1515.83 303.789 1594.87Z" fill="#08687E"/>
<path d="M798.889 775.551H414.207L468.38 254.928L798.889 775.551Z" fill="#D77C7C"/>
<path d="M1740.41 1443.1L1297.55 115.114L1485.14 182.699L1740.41 461.34L1881.7 821.794L1842.52 1223.75L1740.41 1443.1Z" fill="#007E9C"/>
<path d="M283.091 1606.12C281.53 1621.23 292.512 1634.74 307.619 1636.3C322.727 1637.86 336.239 1626.88 337.8 1611.77L283.091 1606.12ZM455.369 206.154L478.366 191.074C471.985 181.344 460.172 176.682 448.866 179.434C437.561 182.185 429.21 191.754 428.015 203.328L455.369 206.154ZM1448.94 1721.35L1425.94 1736.43C1432.88 1747.01 1446.14 1751.49 1458.08 1747.29C1470.01 1743.09 1477.54 1731.28 1476.31 1718.69L1448.94 1721.35ZM1318.52 98.2199C1317.05 83.1035 1303.6 72.0426 1288.48 73.5145C1273.37 74.9865 1262.3 88.4339 1263.78 103.55L1318.52 98.2199ZM427.969 776.737V749.237H378.745L404.55 791.154L427.969 776.737ZM823.258 804.237C838.446 804.237 850.758 791.925 850.758 776.737C850.758 761.549 838.446 749.237 823.258 749.237V804.237ZM1324.3 92.0162C1319.4 77.6399 1303.78 69.9563 1289.4 74.8544C1275.03 79.7526 1267.34 95.3776 1272.24 109.754L1324.3 92.0162ZM1726.23 1442.23C1731.13 1456.61 1746.75 1464.29 1761.13 1459.39C1775.5 1454.5 1783.19 1438.87 1778.29 1424.49L1726.23 1442.23ZM1065.89 1865.4C1073.85 1878.34 1090.79 1882.37 1103.72 1874.4C1116.66 1866.44 1120.69 1849.5 1112.73 1836.57L1065.89 1865.4ZM866.193 877.931C868.383 892.96 882.343 903.367 897.372 901.176C912.401 898.986 922.808 885.026 920.617 869.997L866.193 877.931ZM1341.76 903.739C1344.27 918.718 1358.45 928.822 1373.43 926.308C1388.41 923.795 1398.52 909.615 1396 894.636L1341.76 903.739ZM337.8 1611.77L482.724 208.98L428.015 203.328L283.091 1606.12L337.8 1611.77ZM432.372 221.234L1425.94 1736.43L1471.94 1706.27L478.366 191.074L432.372 221.234ZM1476.31 1718.69L1318.52 98.2199L1263.78 103.55L1421.57 1724.02L1476.31 1718.69ZM427.969 804.237H823.258V749.237H427.969V804.237ZM1272.24 109.754L1726.23 1442.23L1778.29 1424.49L1324.3 92.0162L1272.24 109.754ZM404.55 791.154L1065.89 1865.4L1112.73 1836.57L451.387 762.32L404.55 791.154ZM920.617 869.997C915.593 835.529 931.746 801.486 965.93 772.858C1000.15 744.2 1049.84 723.651 1102.71 718.083C1155.44 712.529 1208.93 722.101 1251.85 750.537C1294.13 778.56 1328.82 826.644 1341.76 903.739L1396 894.636C1380.84 804.279 1338.63 742.067 1282.23 704.69C1226.45 667.729 1159.47 656.8 1096.95 663.385C1034.55 669.957 974.207 694.188 930.618 730.692C886.992 767.227 857.563 818.729 866.193 877.931L920.617 869.997ZM1857.53 955.472C1857.53 1452.34 1454.19 1855.19 956.565 1855.19V1910.19C1484.49 1910.19 1912.53 1482.78 1912.53 955.472H1857.53ZM956.565 1855.19C458.943 1855.19 55.604 1452.34 55.604 955.472H0.604004C0.604004 1482.78 428.637 1910.19 956.565 1910.19V1855.19ZM55.604 955.472C55.604 458.604 458.943 55.7502 956.565 55.7502V0.750244C428.637 0.750244 0.604004 428.159 0.604004 955.472H55.604ZM956.565 55.7502C1454.19 55.7502 1857.53 458.604 1857.53 955.472H1912.53C1912.53 428.159 1484.49 0.750244 956.565 0.750244V55.7502Z" fill="black"/>
</svg>
