<svg width="2000" height="2000" viewBox="0 0 2000 2000" fill="none" xmlns="http://www.w3.org/2000/svg">
<g clip-path="url(#clip0_201_40)">
<rect x="1" width="2000" height="2000" rx="1000" fill="black"/>
<path d="M795 1334L552.5 728.5C552.833 736.167 553.5 749 554.5 767C555.833 784.667 557.167 805.833 558.5 830.5C560.167 854.833 561.5 880.667 562.5 908C563.5 935.333 564 962.333 564 989V1334H483.5V645.5H601L847.5 1253.5C847.167 1243.83 846 1226.17 844 1200.5C842 1174.5 840.167 1143.17 838.5 1106.5C836.833 1069.83 836 1031 836 990V645.5H916.5V1334H795ZM1477.11 1219C1477.11 1240 1480.61 1255.33 1487.61 1265C1494.61 1274.67 1505.44 1281.83 1520.11 1286.5L1499.61 1345.5C1476.94 1342.5 1457.11 1335.33 1440.11 1324C1423.11 1312.33 1410.78 1294.83 1403.11 1271.5C1384.11 1295.83 1360.44 1314.33 1332.11 1327C1303.78 1339.33 1272.44 1345.5 1238.11 1345.5C1185.44 1345.5 1143.94 1330.67 1113.61 1301C1083.28 1271.33 1068.11 1232 1068.11 1183C1068.11 1128.67 1089.28 1087 1131.61 1058C1173.94 1029 1235.11 1014.5 1315.11 1014.5H1392.61V970.5C1392.61 932.5 1381.44 905.667 1359.11 890C1337.11 874 1306.44 866 1267.11 866C1249.78 866 1229.44 868.167 1206.11 872.5C1182.78 876.5 1157.44 883.333 1130.11 893L1108.11 829.5C1140.44 817.5 1170.78 809 1199.11 804C1227.44 799 1254.44 796.5 1280.11 796.5C1345.78 796.5 1394.94 811.833 1427.61 842.5C1460.61 872.833 1477.11 914.167 1477.11 966.5V1219ZM1259.61 1281.5C1285.61 1281.5 1310.44 1275 1334.11 1262C1357.78 1248.67 1377.28 1230.33 1392.61 1207V1071.5H1316.61C1258.61 1071.5 1217.61 1081.5 1193.61 1101.5C1169.94 1121.5 1158.11 1148.33 1158.11 1182C1158.11 1214.67 1166.44 1239.5 1183.11 1256.5C1200.11 1273.17 1225.61 1281.5 1259.61 1281.5Z" fill="white"/>
</g>
<defs>
<clipPath id="clip0_201_40">
<rect width="2000" height="2000" fill="white"/>
</clipPath>
</defs>
</svg>
