<svg width="6054" height="2462" viewBox="0 0 6054 2462" fill="none" xmlns="http://www.w3.org/2000/svg">
<rect x="303" y="380" width="1702" height="1702" rx="851" stroke="white" stroke-width="22"/>
<rect x="715" y="792" width="878" height="878" rx="439" stroke="white" stroke-width="22"/>
<rect x="727.151" y="915.408" width="150" height="150" rx="75" transform="rotate(-45 727.151 915.408)" fill="white"/>
<rect x="1079" y="294" width="150" height="150" rx="75" fill="white"/>
<rect x="1079" y="2018" width="150" height="150" rx="75" fill="white"/>
<rect x="217" y="1306" width="150" height="150" rx="75" transform="rotate(-90 217 1306)" fill="white"/>
<rect x="1941" y="1306" width="150" height="150" rx="75" transform="rotate(-90 1941 1306)" fill="white"/>
<rect x="438.408" y="621.474" width="150" height="150" rx="75" transform="rotate(-45 438.408 621.474)" fill="white"/>
<rect x="1657.46" y="1840.53" width="150" height="150" rx="75" transform="rotate(-45 1657.46 1840.53)" fill="white"/>
<rect x="544.474" y="1946.59" width="150" height="150" rx="75" transform="rotate(-135 544.474 1946.59)" fill="white"/>
<rect x="1763.53" y="727.54" width="150" height="150" rx="75" transform="rotate(-135 1763.53 727.54)" fill="white"/>
<rect x="1368.72" y="1546.59" width="150" height="150" rx="75" transform="rotate(-45 1368.72 1546.59)" fill="white"/>
<path d="M2606.56 1396.62L2407.47 899.505C2407.74 905.799 2408.29 916.335 2409.11 931.113C2410.21 945.617 2411.3 962.995 2412.4 983.247C2413.76 1003.22 2414.86 1024.43 2415.68 1046.87C2416.5 1069.31 2416.91 1091.48 2416.91 1113.38V1396.62H2350.82V831.362H2447.29L2649.66 1330.53C2649.39 1322.59 2648.43 1308.09 2646.79 1287.02C2645.15 1265.67 2643.64 1239.95 2642.28 1209.84C2640.91 1179.74 2640.22 1147.86 2640.22 1114.2V831.362H2706.31V1396.62H2606.56ZM3166.57 1302.21C3166.57 1319.45 3169.45 1332.03 3175.19 1339.97C3180.94 1347.91 3189.84 1353.79 3201.88 1357.62L3185.05 1406.06C3166.44 1403.6 3150.15 1397.71 3136.2 1388.41C3122.24 1378.83 3112.11 1364.46 3105.82 1345.31C3090.22 1365.29 3070.79 1380.47 3047.53 1390.87C3024.27 1401 2998.54 1406.06 2970.35 1406.06C2927.12 1406.06 2893.04 1393.88 2868.14 1369.53C2843.24 1345.17 2830.78 1312.88 2830.78 1272.65C2830.78 1228.04 2848.16 1193.83 2882.92 1170.02C2917.67 1146.22 2967.89 1134.31 3033.57 1134.31H3097.2V1098.19C3097.2 1066.99 3088.03 1044.96 3069.7 1032.1C3051.63 1018.96 3026.46 1012.39 2994.16 1012.39C2979.93 1012.39 2963.24 1014.17 2944.08 1017.73C2924.93 1021.01 2904.13 1026.62 2881.69 1034.56L2863.62 982.426C2890.17 972.574 2915.07 965.595 2938.34 961.49C2961.6 957.385 2983.76 955.333 3004.84 955.333C3058.75 955.333 3099.11 967.921 3125.93 993.099C3153.03 1018 3166.57 1051.94 3166.57 1094.9V1302.21ZM2988.01 1353.52C3009.35 1353.52 3029.74 1348.18 3049.17 1337.51C3068.6 1326.56 3084.61 1311.51 3097.2 1292.35V1181.11H3034.8C2987.19 1181.11 2953.52 1189.32 2933.82 1205.74C2914.39 1222.16 2904.67 1244.19 2904.67 1271.83C2904.67 1298.65 2911.52 1319.04 2925.2 1332.99C2939.16 1346.68 2960.09 1353.52 2988.01 1353.52ZM3692.51 1374.86C3677.74 1384.72 3659.81 1392.38 3638.74 1397.85C3617.67 1403.32 3597 1406.06 3576.75 1406.06C3530.23 1406.06 3494.38 1393.88 3469.2 1369.53C3444.02 1345.17 3431.44 1313.84 3431.44 1275.52V1017.73H3332.1V964.364H3431.44V866.254L3500.4 858.044V964.364H3649.82L3641.61 1017.73H3500.4V1274.7C3500.4 1298.78 3506.69 1317.12 3519.28 1329.71C3532.15 1342.3 3553.35 1348.59 3582.91 1348.59C3599.06 1348.59 3613.97 1346.68 3627.66 1342.84C3641.34 1339.01 3654.06 1334.09 3665.83 1328.07L3692.51 1374.86ZM3845.72 1396.62V1343.67H3913.04V1017.32H3845.72V964.364H3965.59L3978.31 1066.58C3995.01 1031 4015.26 1003.5 4039.07 984.068C4062.87 964.637 4094.35 954.922 4133.48 954.922C4145.52 954.922 4156.2 955.88 4165.5 957.796C4175.08 959.438 4184.79 961.627 4194.65 964.364L4174.53 1025.94C4165.5 1023.48 4157.29 1021.7 4149.9 1020.6C4142.51 1019.23 4134.03 1018.55 4124.45 1018.55C4091.34 1018.55 4062.87 1030.32 4039.07 1053.85C4015.26 1077.39 3996.24 1112.96 3982.01 1160.58V1343.67H4069.85V1396.62H3845.72ZM4128.14 1110.5V1016.5L4135.12 964.364H4194.65L4184.79 1110.5H4128.14ZM4552.69 964.364V1342.02H4674.61V1396.62H4350.31V1342.02H4483.73V1018.96H4354.42V964.364H4552.69ZM4497.68 761.987C4513.01 761.987 4525.19 766.639 4534.22 775.944C4543.52 785.249 4548.18 796.606 4548.18 810.016C4548.18 823.973 4543.52 835.74 4534.22 845.319C4525.19 854.623 4513.01 859.276 4497.68 859.276C4483.18 859.276 4471.28 854.623 4461.97 845.319C4452.67 835.74 4448.01 823.973 4448.01 810.016C4448.01 796.606 4452.67 785.249 4461.97 775.944C4471.28 766.639 4483.18 761.987 4497.68 761.987ZM4895.14 964.364V1270.6C4895.14 1299.06 4901.02 1319.58 4912.79 1332.17C4924.56 1344.76 4942.89 1351.05 4967.8 1351.05C4991.61 1351.05 5014.05 1344.35 5035.12 1330.94C5056.46 1317.26 5073.02 1301.11 5084.79 1282.5V964.364H5153.75V1396.62H5095.05L5089.3 1338.33C5072.34 1360.22 5051.4 1377.05 5026.5 1388.82C5001.59 1400.31 4976.42 1406.06 4950.97 1406.06C4909.09 1406.06 4877.76 1394.98 4856.96 1372.81C4836.44 1350.37 4826.17 1319.04 4826.17 1278.81V964.364H4895.14ZM5603.34 955.333C5617.3 955.333 5630.57 958.343 5643.16 964.364C5656.02 970.384 5666.56 982.015 5674.77 999.256C5682.98 1016.5 5687.08 1041.67 5687.08 1074.79V1396.62H5623.04V1085.87C5623.04 1058.78 5621.4 1039.21 5618.12 1027.17C5614.83 1015.13 5605.39 1009.11 5589.79 1009.11C5576.93 1009.11 5564.07 1013.21 5551.21 1021.42C5538.62 1029.36 5526.3 1042.5 5514.26 1060.83V1396.62H5449.81V1085.87C5449.81 1058.78 5448.17 1039.21 5444.89 1027.17C5441.6 1015.13 5432.16 1009.11 5416.56 1009.11C5403.15 1009.11 5390.15 1013.21 5377.56 1021.42C5365.25 1029.36 5353.07 1042.5 5341.03 1060.83V1396.62H5277.4V964.364H5331.59L5335.69 1014.44C5347.46 997.751 5360.6 983.794 5375.1 972.574C5389.88 961.08 5408.08 955.333 5429.7 955.333C5446.12 955.333 5461.58 959.301 5476.08 967.237C5490.59 974.9 5501.26 989.952 5508.1 1012.39C5519.87 995.425 5533.14 981.742 5547.92 971.342C5562.7 960.669 5581.17 955.333 5603.34 955.333Z" fill="white"/>
<path d="M4034.8 1663.43L3959.43 1870.66H3921.06L3846.27 1663.43H3881.3L3941.33 1840.55L4000.56 1663.43H4034.8ZM4176.54 1595.34C4205.8 1595.34 4227.91 1607.41 4242.86 1631.55C4257.82 1655.69 4265.3 1690.2 4265.3 1735.07C4265.3 1780.07 4257.82 1814.7 4242.86 1838.98C4227.91 1863.12 4205.8 1875.19 4176.54 1875.19C4147.42 1875.19 4125.31 1863.12 4110.22 1838.98C4095.26 1814.7 4087.79 1780.07 4087.79 1735.07C4087.79 1690.2 4095.26 1655.69 4110.22 1631.55C4125.31 1607.41 4147.42 1595.34 4176.54 1595.34ZM4176.54 1621.91C4159.88 1621.91 4146.76 1630.76 4137.18 1648.47C4127.61 1666.06 4122.82 1694.92 4122.82 1735.07C4122.82 1755.4 4123.87 1772.79 4125.97 1787.22C4128.06 1801.65 4131.28 1813.39 4135.61 1822.44C4140.07 1831.37 4145.65 1837.93 4152.34 1842.12C4159.16 1846.32 4167.23 1848.42 4176.54 1848.42C4187.83 1848.42 4197.47 1844.55 4205.47 1836.81C4213.61 1829.07 4219.77 1816.87 4223.97 1800.21C4228.3 1783.41 4230.47 1761.7 4230.47 1735.07C4230.47 1708.04 4228.56 1686.19 4224.76 1669.53C4221.08 1652.87 4215.25 1640.8 4207.24 1633.32C4199.37 1625.71 4189.14 1621.91 4176.54 1621.91ZM4216.49 1631.55L4225.15 1660.48L4138.95 1835.04L4126.75 1812.01L4216.49 1631.55ZM4377.71 1840.35C4377.71 1833.92 4379.22 1828.15 4382.24 1823.03C4385.26 1817.79 4389.32 1813.65 4394.44 1810.64C4399.69 1807.49 4405.59 1805.91 4412.15 1805.91C4418.84 1805.91 4424.81 1807.49 4430.06 1810.64C4435.31 1813.65 4439.44 1817.79 4442.46 1823.03C4445.48 1828.15 4446.99 1833.92 4446.99 1840.35C4446.99 1846.78 4445.48 1852.69 4442.46 1858.07C4439.44 1863.31 4435.31 1867.51 4430.06 1870.66C4424.81 1873.68 4418.84 1875.19 4412.15 1875.19C4405.59 1875.19 4399.69 1873.68 4394.44 1870.66C4389.32 1867.51 4385.26 1863.31 4382.24 1858.07C4379.22 1852.69 4377.71 1846.78 4377.71 1840.35ZM4648.55 1595.34C4677.81 1595.34 4699.92 1607.41 4714.87 1631.55C4729.83 1655.69 4737.31 1690.2 4737.31 1735.07C4737.31 1780.07 4729.83 1814.7 4714.87 1838.98C4699.92 1863.12 4677.81 1875.19 4648.55 1875.19C4619.43 1875.19 4597.32 1863.12 4582.23 1838.98C4567.27 1814.7 4559.8 1780.07 4559.8 1735.07C4559.8 1690.2 4567.27 1655.69 4582.23 1631.55C4597.32 1607.41 4619.43 1595.34 4648.55 1595.34ZM4648.55 1621.91C4631.89 1621.91 4618.77 1630.76 4609.19 1648.47C4599.61 1666.06 4594.83 1694.92 4594.83 1735.07C4594.83 1755.4 4595.88 1772.79 4597.97 1787.22C4600.07 1801.65 4603.29 1813.39 4607.62 1822.44C4612.08 1831.37 4617.65 1837.93 4624.35 1842.12C4631.17 1846.32 4639.24 1848.42 4648.55 1848.42C4659.83 1848.42 4669.48 1844.55 4677.48 1836.81C4685.62 1829.07 4691.78 1816.87 4695.98 1800.21C4700.31 1783.41 4702.47 1761.7 4702.47 1735.07C4702.47 1708.04 4700.57 1686.19 4696.77 1669.53C4693.09 1652.87 4687.26 1640.8 4679.25 1633.32C4671.38 1625.71 4661.15 1621.91 4648.55 1621.91ZM4688.5 1631.55L4697.16 1660.48L4610.96 1835.04L4598.76 1812.01L4688.5 1631.55ZM4849.72 1840.35C4849.72 1833.92 4851.23 1828.15 4854.25 1823.03C4857.27 1817.79 4861.33 1813.65 4866.45 1810.64C4871.7 1807.49 4877.6 1805.91 4884.16 1805.91C4890.85 1805.91 4896.82 1807.49 4902.07 1810.64C4907.32 1813.65 4911.45 1817.79 4914.47 1823.03C4917.49 1828.15 4919 1833.92 4919 1840.35C4919 1846.78 4917.49 1852.69 4914.47 1858.07C4911.45 1863.31 4907.32 1867.51 4902.07 1870.66C4896.82 1873.68 4890.85 1875.19 4884.16 1875.19C4877.6 1875.19 4871.7 1873.68 4866.45 1870.66C4861.33 1867.51 4857.27 1863.31 4854.25 1858.07C4851.23 1852.69 4849.72 1846.78 4849.72 1840.35ZM5149.49 1599.67V1862.79H5116.43V1635.49L5054.24 1673.27L5039.87 1649.66L5120.56 1599.67H5149.49ZM5206.17 1843.7V1870.66H5049.71V1843.7H5206.17Z" fill="#AFAFAF"/>
<path d="M2508.55 1601.67V1629.02H2448.33V1845.31H2508.55V1872.66H2353.47V1845.31H2413.69V1629.02H2353.47V1601.67H2508.55ZM2588.49 1872.66V1665.43H2616.63L2619.19 1694.16C2627.59 1683.54 2638.08 1675.4 2650.68 1669.76C2663.4 1663.99 2675.74 1661.1 2687.68 1661.1C2708.01 1661.1 2722.77 1666.48 2731.96 1677.24C2741.27 1688 2745.93 1702.95 2745.93 1722.11V1872.66H2712.87V1746.51C2712.87 1732.34 2712.08 1720.93 2710.5 1712.27C2708.93 1703.48 2705.65 1697.12 2700.66 1693.18C2695.68 1689.11 2687.94 1687.08 2677.44 1687.08C2669.31 1687.08 2661.63 1688.85 2654.42 1692.39C2647.33 1695.94 2640.97 1700.4 2635.33 1705.77C2629.82 1711.02 2625.23 1716.34 2621.55 1721.72V1872.66H2588.49ZM2948.48 1577.86L2981.54 1581.99V1872.66H2952.61L2949.46 1845.31C2941.72 1856.33 2932.8 1864.39 2922.7 1869.51C2912.73 1874.63 2902.03 1877.19 2890.62 1877.19C2872.64 1877.19 2857.82 1872.66 2846.14 1863.61C2834.47 1854.55 2825.81 1841.96 2820.16 1825.82C2814.52 1809.55 2811.7 1790.73 2811.7 1769.34C2811.7 1748.61 2814.92 1730.11 2821.35 1713.84C2827.77 1697.44 2837.02 1684.59 2849.09 1675.27C2861.3 1665.82 2875.92 1661.1 2892.98 1661.1C2904.92 1661.1 2915.41 1663.2 2924.47 1667.4C2933.52 1671.47 2941.52 1677.5 2948.48 1685.5V1577.86ZM2901.64 1687.67C2884.32 1687.67 2871 1694.43 2861.69 1707.94C2852.37 1721.45 2847.72 1741.92 2847.72 1769.34C2847.72 1787.18 2849.62 1802.14 2853.42 1814.21C2857.23 1826.28 2862.8 1835.33 2870.15 1841.37C2877.63 1847.4 2886.75 1850.42 2897.51 1850.42C2909.31 1850.42 2919.35 1847.08 2927.62 1840.39C2936.01 1833.69 2942.97 1826.15 2948.48 1817.75V1714.24C2942.84 1705.84 2936.01 1699.35 2928.01 1694.75C2920.01 1690.03 2911.22 1687.67 2901.64 1687.67ZM3086.48 1780.76C3087.13 1796.76 3090.22 1809.88 3095.73 1820.11C3101.24 1830.22 3108.52 1837.7 3117.57 1842.55C3126.62 1847.27 3136.46 1849.63 3147.09 1849.63C3157.72 1849.63 3167.29 1848.06 3175.82 1844.91C3184.48 1841.76 3193.34 1837.11 3202.39 1830.94L3217.94 1852.78C3208.23 1860.39 3197.14 1866.36 3184.68 1870.69C3172.35 1875.02 3159.69 1877.19 3146.7 1877.19C3126.62 1877.19 3109.5 1872.66 3095.33 1863.61C3081.16 1854.55 3070.34 1841.96 3062.86 1825.82C3055.51 1809.55 3051.84 1790.73 3051.84 1769.34C3051.84 1748.35 3055.58 1729.72 3063.06 1713.45C3070.54 1697.18 3081.03 1684.39 3094.54 1675.07C3108.06 1665.76 3124 1661.1 3142.37 1661.1C3159.82 1661.1 3174.84 1665.23 3187.43 1673.5C3200.03 1681.63 3209.67 1693.31 3216.36 1708.53C3223.19 1723.62 3226.6 1741.66 3226.6 1762.65C3226.6 1766.19 3226.53 1769.54 3226.4 1772.69C3226.27 1775.7 3226.07 1778.39 3225.81 1780.76H3086.48ZM3142.76 1688.26C3127.41 1688.26 3114.55 1693.7 3104.19 1704.59C3093.95 1715.48 3088.12 1732.34 3086.67 1755.17H3194.72C3194.32 1733 3189.47 1716.34 3180.15 1705.18C3170.84 1693.9 3158.37 1688.26 3142.76 1688.26ZM3469.29 1665.43L3393.92 1872.66H3355.54L3280.76 1665.43H3315.79L3375.81 1842.55L3435.05 1665.43H3469.29Z" fill="#AFAFAF"/>
<path d="M3658.26 1641.02L3658.26 1877.18" stroke="#818181" stroke-width="39.3597" stroke-linecap="round"/>
</svg>
