<svg width="2055" height="2055" viewBox="0 0 2055 2055" fill="none" xmlns="http://www.w3.org/2000/svg">
<path d="M1955.82 1023.22C1955.82 1535.31 1540.14 1950.44 1027.36 1950.44C514.586 1950.44 98.8996 1535.31 98.8996 1023.22C98.8996 511.131 514.586 96 1027.36 96C1540.14 96 1955.82 511.131 1955.82 1023.22Z" fill="#50D5FD"/>
<path d="M984.618 835.88L957.31 947.336L1503.46 1742.94L1402.54 883.308L1364.55 835.88L1211.39 741.024L1090.29 764.738L984.618 835.88Z" fill="#F5E548"/>
<path d="M1503.46 1802.23L1341.99 208.642L1833.53 1509.36L1622.19 1754.8L1503.46 1802.23Z" fill="#BD6A6A"/>
<path d="M891.182 861.03L514.451 865.523L1159.15 1924.36H1228.01L1490.4 1840.17V1759.54L891.182 861.03Z" fill="#BD6A6A"/>
<path d="M370.789 1678.82L481.207 865.523L1159.15 1954H888.448L506.14 1797.49L370.789 1678.82Z" fill="#844F4F"/>
<path d="M370.789 1665.87L506.14 280.97C432.924 326.027 269.394 447.68 201.006 573.839C115.521 731.538 73.9663 954.451 111.96 1191.59C142.354 1381.3 297.177 1586.83 370.789 1665.87Z" fill="#08687E"/>
<path d="M865.889 846.551H481.207L535.38 325.928L865.889 846.551Z" fill="#D77C7C"/>
<path d="M1807.41 1514.1L1364.55 186.114L1552.14 253.699L1807.41 532.34L1948.7 892.794L1909.52 1294.75L1807.41 1514.1Z" fill="#007E9C"/>
<path d="M350.091 1677.12C348.53 1692.23 359.512 1705.74 374.619 1707.3C389.727 1708.86 403.239 1697.88 404.8 1682.77L350.091 1677.12ZM522.369 277.154L545.366 262.074C538.985 252.344 527.172 247.682 515.866 250.434C504.561 253.185 496.21 262.754 495.015 274.328L522.369 277.154ZM1515.94 1792.35L1492.94 1807.43C1499.88 1818.01 1513.14 1822.49 1525.08 1818.29C1537.01 1814.09 1544.54 1802.28 1543.31 1789.69L1515.94 1792.35ZM1385.52 169.22C1384.05 154.104 1370.6 143.043 1355.48 144.515C1340.37 145.986 1329.3 159.434 1330.78 174.55L1385.52 169.22ZM494.969 847.737V820.237H445.745L471.55 862.154L494.969 847.737ZM890.258 875.237C905.446 875.237 917.758 862.925 917.758 847.737C917.758 832.549 905.446 820.237 890.258 820.237V875.237ZM1391.3 163.016C1386.4 148.64 1370.78 140.956 1356.4 145.854C1342.03 150.753 1334.34 166.378 1339.24 180.754L1391.3 163.016ZM1793.23 1513.23C1798.13 1527.61 1813.75 1535.29 1828.13 1530.39C1842.5 1525.5 1850.19 1509.87 1845.29 1495.49L1793.23 1513.23ZM1132.89 1936.4C1140.85 1949.34 1157.79 1953.37 1170.72 1945.4C1183.66 1937.44 1187.69 1920.5 1179.73 1907.57L1132.89 1936.4ZM933.193 948.931C935.383 963.96 949.343 974.367 964.372 972.176C979.401 969.986 989.808 956.026 987.617 940.997L933.193 948.931ZM1408.76 974.739C1411.27 989.718 1425.45 999.822 1440.43 997.308C1455.41 994.795 1465.52 980.615 1463 965.636L1408.76 974.739ZM404.8 1682.77L549.724 279.98L495.015 274.328L350.091 1677.12L404.8 1682.77ZM499.372 292.234L1492.94 1807.43L1538.94 1777.27L545.366 262.074L499.372 292.234ZM1543.31 1789.69L1385.52 169.22L1330.78 174.55L1488.57 1795.02L1543.31 1789.69ZM494.969 875.237H890.258V820.237H494.969V875.237ZM1339.24 180.754L1793.23 1513.23L1845.29 1495.49L1391.3 163.016L1339.24 180.754ZM471.55 862.154L1132.89 1936.4L1179.73 1907.57L518.387 833.32L471.55 862.154ZM987.617 940.997C982.593 906.529 998.746 872.486 1032.93 843.858C1067.15 815.2 1116.84 794.651 1169.71 789.083C1222.44 783.529 1275.93 793.101 1318.85 821.537C1361.13 849.56 1395.82 897.644 1408.76 974.739L1463 965.636C1447.84 875.279 1405.63 813.067 1349.23 775.69C1293.45 738.729 1226.47 727.8 1163.95 734.385C1101.55 740.957 1041.21 765.188 997.618 801.692C953.992 838.227 924.563 889.729 933.193 948.931L987.617 940.997ZM1924.53 1026.47C1924.53 1523.34 1521.19 1926.19 1023.56 1926.19V1981.19C1551.49 1981.19 1979.53 1553.78 1979.53 1026.47H1924.53ZM1023.56 1926.19C525.943 1926.19 122.604 1523.34 122.604 1026.47H67.604C67.604 1553.78 495.637 1981.19 1023.56 1981.19V1926.19ZM122.604 1026.47C122.604 529.604 525.943 126.75 1023.56 126.75V71.7502C495.637 71.7502 67.604 499.159 67.604 1026.47H122.604ZM1023.56 126.75C1521.19 126.75 1924.53 529.604 1924.53 1026.47H1979.53C1979.53 499.159 1551.49 71.7502 1023.56 71.7502V126.75Z" fill="black"/>
</svg>
