<svg width="2000" height="2000" viewBox="0 0 2000 2000" fill="none" xmlns="http://www.w3.org/2000/svg">
<path d="M764.5 118C656.5 136.4 599.667 186.167 586.5 212C653.333 235 748 330.5 1027 320C1224.09 312.583 1380.83 250.833 1431 205C1413.5 181.333 1354.5 129.1 1258.5 109.5C1138.5 85.0001 899.5 95.0001 764.5 118Z" fill="#D9D9D9" stroke="black" stroke-width="3" stroke-linejoin="round"/>
<path fill-rule="evenodd" clip-rule="evenodd" d="M1022 146C1022 148.761 1014.39 151 1005 151C995.611 151 988 148.761 988 146C988 143.239 995.611 141 1005 141C1014.39 141 1022 143.239 1022 146ZM928 156C937.389 156 945 153.761 945 151C945 148.239 937.389 146 928 146C918.611 146 911 148.239 911 151C911 153.761 918.611 156 928 156ZM1161 156C1161 158.761 1153.39 161 1144 161C1134.61 161 1127 158.761 1127 156C1127 153.239 1134.61 151 1144 151C1153.39 151 1161 153.239 1161 156ZM847 171C856.389 171 864 168.761 864 166C864 163.239 856.389 161 847 161C837.611 161 830 163.239 830 166C830 168.761 837.611 171 847 171ZM1186 171C1195.39 171 1203 168.761 1203 166C1203 163.239 1195.39 161 1186 161C1176.61 161 1169 163.239 1169 166C1169 168.761 1176.61 171 1186 171ZM945 206C945 208.761 937.389 211 928 211C918.611 211 911 208.761 911 206C911 203.239 918.611 201 928 201C937.389 201 945 203.239 945 206ZM1093 201C1102.39 201 1110 198.761 1110 196C1110 193.239 1102.39 191 1093 191C1083.61 191 1076 193.239 1076 196C1076 198.761 1083.61 201 1093 201ZM1056 206C1056 208.761 1048.39 211 1039 211C1029.61 211 1022 208.761 1022 206C1022 203.239 1029.61 201 1039 201C1048.39 201 1056 203.239 1056 206ZM983 188C992.389 188 1000 185.761 1000 183C1000 180.239 992.389 178 983 178C973.611 178 966 180.239 966 183C966 185.761 973.611 188 983 188ZM1099 151C1099 153.761 1091.39 156 1082 156C1072.61 156 1065 153.761 1065 151C1065 148.239 1072.61 146 1082 146C1091.39 146 1099 148.239 1099 151ZM801 203C810.389 203 818 200.761 818 198C818 195.239 810.389 193 801 193C791.611 193 784 195.239 784 198C784 200.761 791.611 203 801 203ZM1254 198C1254 200.761 1246.39 203 1237 203C1227.61 203 1220 200.761 1220 198C1220 195.239 1227.61 193 1237 193C1246.39 193 1254 195.239 1254 198ZM847 236C856.389 236 864 233.761 864 231C864 228.239 856.389 226 847 226C837.611 226 830 228.239 830 231C830 233.761 837.611 236 847 236ZM1203 231C1203 233.761 1195.39 236 1186 236C1176.61 236 1169 233.761 1169 231C1169 228.239 1176.61 226 1186 226C1195.39 226 1203 228.239 1203 231ZM1137 248C1146.39 248 1154 245.761 1154 243C1154 240.239 1146.39 238 1137 238C1127.61 238 1120 240.239 1120 243C1120 245.761 1127.61 248 1137 248ZM928 251C937.389 251 945 248.761 945 246C945 243.239 937.389 241 928 241C918.611 241 911 243.239 911 246C911 248.761 918.611 251 928 251ZM1099 246C1099 248.761 1091.39 251 1082 251C1072.61 251 1065 248.761 1065 246C1065 243.239 1072.61 241 1082 241C1091.39 241 1099 243.239 1099 246ZM1005 255C1014.39 255 1022 252.761 1022 250C1022 247.239 1014.39 245 1005 245C995.611 245 988 247.239 988 250C988 252.761 995.611 255 1005 255Z" fill="#AFACAC"/>
<path d="M369 1701.5L587.5 594C686.667 620.333 919.7 671.5 1058.5 665.5C1197.3 659.5 1375 615.333 1446.5 594L1676.5 1701.5L1315 1901.5H712L369 1701.5Z" fill="#E8E7E7" stroke="black"/>
<path d="M582 571.5L559 415V310.5L582 225.5L751 290L939 318.5H1145.5L1316 279.5L1438.5 210.5L1462.5 279.5L1476 364.5L1447.5 556L1405 594L1225 644.5L1025.5 661H864.5L699.5 630.5L582 571.5Z" fill="#BDBDBD"/>
<path d="M366 1681L476 1186L1563.5 1217.5L1660.5 1681L1285.5 1888H699L366 1681Z" fill="#F7F7F7"/>
<path d="M824.675 1092.82C709.898 1035.2 460.5 1018.5 470 1160C455.5 1189.5 655.688 1300.78 824.675 1264.37C1035.91 1218.86 1335.94 1241.86 1496.23 1237.36C1624.47 1233.76 1556 1164.5 1532 1092.82C1532 1053.5 1472 1077 1404.5 1092.82C1314.8 1113.84 968.146 1164.84 824.675 1092.82Z" fill="#F3F3F3"/>
<path d="M834 654.5L714.5 1886L369 1691.5L589 573.5C587.259 582 547.3 600.2 552.5 383C557.7 165.8 543.5 336 589 230C643.667 261.333 861 288 861 309.5C861 342.895 855.167 526.167 834 654.5Z" fill="white" fill-opacity="0.35"/>
<path d="M1166.5 311.5L1306 282.5C1424.5 248 1401.5 206 1424.5 191.5C1443.55 179.492 1463.68 264.82 1471 330.5C1480.45 415.334 1457.46 521.647 1444.5 589L1658 1695L1274.5 1902L1166.5 643.5V311.5Z" fill="black" fill-opacity="0.08"/>
<path fill-rule="evenodd" clip-rule="evenodd" d="M605.275 211.633C617.927 196.265 634.644 182.849 654.59 171.149C690.82 149.896 736.438 135.091 783.759 124.981C878.377 104.768 976.401 104.02 1010.86 105.486L1011.25 96.3769L1011.64 105.486C1046.1 104.02 1144.12 104.768 1238.74 124.981C1286.06 135.091 1331.68 149.896 1367.91 171.149C1386.62 182.123 1402.48 194.606 1414.82 208.794C1394.26 224.228 1362.08 245.564 1310.19 264.318C1246.17 287.456 1151.49 306.886 1011.15 305.501C870.912 304.116 766.472 281.044 697.267 256.618C662.628 244.391 636.978 231.883 620.149 221.702C613.814 217.869 608.891 214.464 605.275 211.633ZM589.059 236.996C593.462 240.287 598.668 243.769 604.62 247.37C623.509 258.798 651.081 272.129 687.282 284.907C759.761 310.489 867.488 334.084 1010.85 335.499C1154.11 336.914 1252.43 317.094 1320.39 292.532C1375.15 272.737 1409.76 250.008 1431.76 233.588C1434.98 239.852 1437.61 246.389 1439.6 253.212C1473.85 370.259 1441.15 508.825 1422.97 567.415C1402.97 578.712 1365.65 593.923 1310.48 608.045C1246.63 624.386 1159.92 639.001 1050.74 644.519C913.41 651.46 806.794 639.896 730.426 620.942C692.231 611.462 661.829 600.189 639.016 588.609C618.415 578.151 604.785 567.837 596.987 559.015C578.539 496.379 550.191 364.984 582.896 253.212C584.533 247.617 586.595 242.214 589.059 236.996ZM777.491 95.6435C874.58 74.9017 974.468 73.9935 1011.25 75.4768C1048.03 73.9935 1147.92 74.9017 1245.01 95.6435C1293.94 106.096 1343.01 121.76 1383.09 145.273C1423.21 168.805 1455.58 200.984 1468.4 244.788C1503.78 365.722 1472.85 504.986 1453.89 568.841C1454.26 569.736 1454.54 570.673 1454.72 571.64L1672.22 1691.64C1673.46 1697.99 1670.48 1704.41 1664.85 1707.58L1300.85 1912.08C1298.6 1913.34 1296.07 1914 1293.5 1914H718C715.366 1914 712.778 1913.31 710.497 1911.99L356.497 1707.49C350.959 1704.29 348.058 1697.93 349.273 1691.65L567.325 564.466C548.308 498.795 519.505 363.03 554.104 244.788C566.921 200.984 599.294 168.805 639.41 145.273C679.493 121.76 728.562 106.096 777.491 95.6435ZM380.756 1686.86L592.006 594.838C601.371 601.957 612.583 608.835 625.437 615.36C650.702 628.185 683.331 640.163 723.199 650.058C802.956 669.854 912.589 681.54 1052.26 674.481C1163.27 668.87 1251.97 653.985 1317.92 637.108C1367.6 624.393 1404.97 610.39 1429.29 598.039L1640.71 1686.73L1289.57 1884H722.021L380.756 1686.86Z" fill="#666666"/>
<circle cx="861" cy="1333" r="44" fill="#2D2D2D"/>
<circle cx="1123" cy="1333" r="44" fill="#2D2D2D"/>
<path d="M988.553 1463.48C962.713 1463.48 953.103 1433.96 950.5 1413H1032C1032.49 1423.4 1023.5 1463.48 988.553 1463.48Z" fill="#E86262" stroke="#2D2D2D" stroke-width="15" stroke-linecap="round" stroke-linejoin="round"/>
<path d="M988.553 1463.48C962.713 1463.48 953.103 1433.96 950.5 1413H1032C1032.49 1423.4 1023.5 1463.48 988.553 1463.48Z" stroke="#2D2D2D" stroke-width="15" stroke-linecap="round" stroke-linejoin="round"/>
</svg>
